<svg width="132" height="125" viewBox="0 0 132 125" fill="none" xmlns="http://www.w3.org/2000/svg">
<path d="M44.023 63.0421L46.668 63.6214L50.532 64.4677L63.2833 67.2605L82.5667 73.5087L92.5764 77.7257L95.8799 79.3189C98.7929 80.7237 101.512 82.499 103.97 84.6008L107.083 87.2621C108.887 88.8051 110.36 90.698 111.412 92.8264L111.552 93.1088C112.627 95.2833 113.199 97.6716 113.226 100.097L113.237 101.065C113.279 104.836 111.787 108.463 109.102 111.112C107.452 112.741 105.42 113.931 103.192 114.574L99.2799 115.702C97.2412 116.29 95.1458 116.659 93.0289 116.804L86.3471 117.26C80.208 116.993 74.1033 116.198 68.1007 114.884L67.4633 114.744C62.0594 113.56 56.7483 111.987 51.5718 110.036L41.3919 106.199L29.1005 99.4577L21.6493 94.0872C19.6273 92.6298 17.7578 90.972 16.069 89.139L15.1691 88.1622C13.113 85.9304 11.4238 83.3866 10.1647 80.6257L9.44728 79.0526C9.00567 78.0843 8.67755 77.0682 8.46946 76.0245L7.93315 73.3345C7.61051 71.7162 7.89947 70.0358 8.74413 68.6182C9.14673 67.9425 9.66571 67.3434 10.2771 66.8486L11.6637 65.7263C14.0162 63.8222 16.8427 62.5946 19.8399 62.175L23.6602 61.6402C25.5746 61.3721 27.5101 61.2863 29.4407 61.3838L32.9615 61.5617C36.6831 61.7497 40.3829 62.2448 44.023 63.0421Z" fill="#252525"/>
<path d="M48.2441 64.247L39.7017 69.1063C39.4673 69.2396 39.2161 69.3407 38.9548 69.4069L34.2894 70.5884C34.2325 70.6028 34.1764 70.6153 34.1188 70.6271C33.633 70.727 31.2281 71.2551 31.076 71.9496C30.9846 72.3668 31.0445 73.171 31.1189 73.8229C31.1933 74.4743 31.5147 75.0672 31.9917 75.517L46.0636 88.786C46.26 88.9711 46.4804 89.1289 46.719 89.2551L59.0622 95.7845C59.3021 95.9114 59.5581 96.0051 59.8231 96.0632L68.3182 97.9238C68.5699 97.9789 68.8277 98.0014 69.0852 97.9906L83.6917 97.3811C84.0458 97.3663 84.3944 97.2889 84.7214 97.1525L90.228 94.8561C91.8119 94.1955 92.52 92.3433 91.7806 90.7947L89.697 86.4305C89.4096 85.8285 89.3311 85.1478 89.4738 84.4961L90.9462 77.7736L91.8175 73.7955C91.8571 73.6143 91.8799 73.4298 91.8855 73.2445L92.2597 60.8874C92.2645 60.7297 92.2568 60.5719 92.2368 60.4154L90.8385 49.5003C90.7948 49.1592 90.8101 48.8132 90.8837 48.4773L92.1322 42.7768C92.1847 42.5372 92.2076 42.2921 92.2004 42.0469L91.9826 34.634C91.9754 34.3888 91.9983 34.1437 92.0508 33.9041L93.3668 27.8957C93.4515 27.5088 93.612 27.1425 93.8391 26.8179L95.2963 24.7347C95.9905 23.7423 97.2134 23.2647 98.3964 23.5238L102.625 24.45L103.293 24.5963C105.472 25.0734 107.391 23.0912 106.843 20.9293L106.753 20.5727C106.474 19.4712 105.597 18.6218 104.487 18.3786L98.2562 17.0141C97.9518 16.9474 97.6389 16.9286 97.3287 16.9583L86.717 17.9735C86.3852 18.0052 86.0639 18.0903 85.7668 18.2413C84.1222 19.077 78.3163 22.2992 74.3187 27.9688C70.5824 33.2676 69.4423 36.0633 69.1319 36.9866C69.0538 37.2191 68.9719 37.4493 68.8629 37.669L66.1273 43.1821L61.8145 49.9314L59.5919 52.6841L55.8715 56.7285L48.8886 63.7542C48.6971 63.9468 48.4803 64.1126 48.2441 64.247Z" fill="#252525"/>
<path d="M37.3287 75.9184L34.8931 72.5746C34.5588 72.1156 34.0678 71.795 33.5132 71.6735L33.0165 71.5648C32.0383 71.3505 31.0715 71.9699 30.8573 72.9481C30.7361 73.5015 30.8805 74.0798 31.2476 74.5112L35.2286 79.1894L40.5867 84.582C43.7162 87.7316 47.2708 90.428 51.1473 92.5928L56.0962 95.0018C58.7139 96.2759 61.4737 97.2346 64.3176 97.8574C67.7044 98.5992 71.1792 98.858 74.6385 98.626L77.7431 98.4179L80.1397 98.3051C83.4784 98.1481 86.7526 97.3291 89.7721 95.8957L91.1357 95.1735C92.4622 94.4711 93.0301 92.8701 92.4427 91.4888L92.3482 91.2664C91.5247 89.3298 88.9195 88.9989 87.638 90.6682C85.9541 92.3399 83.7027 93.3167 81.3316 93.4043L78.8209 93.4971L75.7476 93.4221C72.3682 93.3395 69.0046 92.9339 65.7025 92.2106L63.2358 91.6704L61.5858 91.309C59.0456 90.7526 56.5859 89.8773 54.2652 88.7038C52.907 88.0169 51.6014 87.2305 50.3592 86.3509L46.5475 83.6519L42.2687 80.7313L39.2027 77.99C38.5066 77.3676 37.8784 76.6732 37.3287 75.9184Z" fill="#ECB800"/>
</svg>
