<svg width="515" height="174" viewBox="0 0 515 174" fill="none" xmlns="http://www.w3.org/2000/svg">
<path d="M65.056 138.76C64.448 138.76 63.84 138.608 63.232 138.304C62.624 138.101 62.168 137.747 61.864 137.24L27.664 59.872H27.208L27.512 120.216C27.6133 122.141 27.7653 124.016 27.968 125.84C28.272 127.563 29.0827 129.032 30.4 130.248C31.7173 131.363 33.9467 131.92 37.088 131.92C38.2027 131.92 39.1147 132.021 39.824 132.224C40.5333 132.427 40.9387 133.389 41.04 135.112C41.04 135.923 40.7867 136.683 40.28 137.392C39.8747 138.101 39.216 138.456 38.304 138.456C36.176 138.355 34.4533 138.253 33.136 138.152C31.8187 138.152 30.552 138.101 29.336 138C28.12 138 26.4987 138 24.472 138C21.432 138 18.9493 138 17.024 138C15.2 138.101 12.6667 138.253 9.424 138.456C8.41067 138.456 7.70133 138.101 7.296 137.392C6.89067 136.683 6.688 135.923 6.688 135.112C6.78933 133.389 7.19467 132.427 7.904 132.224C8.61333 132.021 9.47467 131.92 10.488 131.92C13.7307 131.92 15.96 131.363 17.176 130.248C18.4933 129.032 19.304 127.563 19.608 125.84C19.912 124.016 20.064 122.141 20.064 120.216L20.368 59.872C20.368 56.6293 20.0133 54.248 19.304 52.728C18.5947 51.1067 17.48 49.992 15.96 49.384C14.44 48.6747 12.5147 48.1173 10.184 47.712C8.76533 47.408 7.752 47.1547 7.144 46.952C6.63733 46.7493 6.384 45.8373 6.384 44.216C6.384 42.4933 6.992 41.5813 8.208 41.48C9.424 41.2773 10.8427 41.176 12.464 41.176C17.4293 41.176 21.7867 41.5813 25.536 42.392C29.3867 43.2027 32.7307 44.7733 35.568 47.104C38.4053 49.3333 40.736 52.728 42.56 57.288L68.704 115.96H69.16L99.104 42.088H107.768C110.808 42.088 113.747 42.0373 116.584 41.936C119.523 41.8347 122.613 41.7333 125.856 41.632C126.869 41.632 127.579 41.9867 127.984 42.696C128.389 43.4053 128.592 44.1653 128.592 44.976C128.491 46.6987 128.085 47.6613 127.376 47.864C126.667 48.0667 125.805 48.168 124.792 48.168C121.651 48.168 119.371 48.776 117.952 49.992C116.635 51.1067 115.824 52.576 115.52 54.4C115.216 56.1227 115.013 57.9467 114.912 59.872V120.216C115.013 122.141 115.216 124.016 115.52 125.84C115.824 127.563 116.635 129.032 117.952 130.248C119.371 131.363 121.651 131.92 124.792 131.92C125.805 131.92 126.667 132.021 127.376 132.224C128.085 132.427 128.491 133.389 128.592 135.112C128.592 135.923 128.389 136.683 127.984 137.392C127.579 138.101 126.869 138.456 125.856 138.456C122.613 138.253 119.523 138.101 116.584 138C113.645 138 110.656 138 107.616 138C101.739 138 95.5067 138.152 88.92 138.456C87.9067 138.456 87.1973 138.101 86.792 137.392C86.3867 136.683 86.184 135.923 86.184 135.112C86.2853 133.389 86.6907 132.427 87.4 132.224C88.1093 132.021 88.9707 131.92 89.984 131.92C93.2267 131.92 95.5067 131.363 96.824 130.248C98.1413 129.032 98.952 127.563 99.256 125.84C99.6613 124.016 99.864 122.141 99.864 120.216V59.872H99.408L68.096 137.24C67.8933 137.747 67.488 138.101 66.88 138.304C66.272 138.608 65.664 138.76 65.056 138.76ZM155.864 139.824C149.683 139.824 144.717 138.051 140.968 134.504C137.32 130.957 135.496 126.701 135.496 121.736C135.496 116.568 136.813 112.515 139.448 109.576C142.184 106.637 145.731 104.459 150.088 103.04C154.547 101.621 159.36 100.659 164.528 100.152C169.797 99.6453 174.915 99.24 179.88 98.936V86.928C179.88 82.1653 178.664 78.4667 176.232 75.832C173.901 73.096 169.899 71.728 164.224 71.728C161.387 71.728 158.701 72.64 156.168 74.464C153.736 76.288 152.52 78.9227 152.52 82.368C152.52 83.9893 152.925 85.3573 153.736 86.472C154.547 87.5867 155.357 88.448 156.168 89.056C156.979 89.664 157.384 90.0693 157.384 90.272C157.384 90.6773 156.776 91.4373 155.56 92.552C154.445 93.5653 152.875 94.072 150.848 94.072C147.707 94.072 145.275 92.9067 143.552 90.576C141.829 88.2453 140.968 85.6613 140.968 82.824C140.968 78.9733 142.133 75.9333 144.464 73.704C146.896 71.4747 149.987 69.8533 153.736 68.84C157.485 67.8267 161.285 67.32 165.136 67.32C169.696 67.32 174.104 67.8773 178.36 68.992C182.717 70.1067 186.264 72.2347 189 75.376C191.837 78.5173 193.256 83.2293 193.256 89.512V124.928C193.357 125.941 193.611 127.157 194.016 128.576C194.421 129.995 195.181 131.261 196.296 132.376C197.512 133.389 199.133 133.896 201.16 133.896C201.869 133.896 202.427 134.048 202.832 134.352C203.237 134.555 203.44 135.213 203.44 136.328C203.44 137.24 202.933 137.949 201.92 138.456C200.907 138.963 199.741 139.317 198.424 139.52C197.107 139.723 195.992 139.824 195.08 139.824C191.331 139.824 187.987 138.76 185.048 136.632C182.109 134.403 180.387 131.363 179.88 127.512C177.651 131.565 174.307 134.656 169.848 136.784C165.491 138.811 160.829 139.824 155.864 139.824ZM160.728 131.616C164.173 131.616 167.315 130.755 170.152 129.032C173.091 127.309 175.421 124.979 177.144 122.04C178.968 119 179.88 115.656 179.88 112.008V103.344C169.443 104.053 161.995 105.725 157.536 108.36C153.077 110.995 150.848 115.301 150.848 121.28C150.848 128.171 154.141 131.616 160.728 131.616ZM238.27 140.584C235.23 140.584 232.342 139.824 229.606 138.304C226.87 136.784 224.59 134.453 222.766 131.312C221.043 128.171 220.182 124.219 220.182 119.456V74.768L211.366 75.072C210.656 75.072 210.099 74.8187 209.694 74.312C209.39 73.704 209.238 73.0453 209.238 72.336C209.238 70.3093 209.947 69.144 211.366 68.84C215.115 68.1307 217.952 66.9653 219.878 65.344C221.803 63.6213 223.272 61.5947 224.286 59.264C225.4 56.9333 226.414 54.4 227.326 51.664C227.63 50.8533 228.086 50.3467 228.694 50.144C229.302 49.84 229.96 49.688 230.67 49.688C231.278 49.688 231.936 49.84 232.646 50.144C233.456 50.448 233.862 51.0053 233.862 51.816L232.798 69.144L250.582 68.08C251.494 67.9787 252.102 68.232 252.406 68.84C252.71 69.448 252.862 70.1573 252.862 70.968C252.862 71.9813 252.659 72.9947 252.254 74.008C251.95 75.0213 251.544 75.528 251.038 75.528L234.014 75.072V121.28C234.014 124.219 234.622 126.904 235.838 129.336C237.155 131.768 239.486 132.984 242.83 132.984C243.944 132.984 245.211 132.883 246.63 132.68C248.048 132.477 249.568 132.021 251.19 131.312C251.595 131.109 252 130.957 252.406 130.856C252.811 130.653 253.216 130.552 253.622 130.552C254.432 130.552 255.04 130.907 255.446 131.616C255.851 132.224 256.206 132.883 256.51 133.592C256.814 134.504 256.56 135.213 255.75 135.72C252.608 137.747 249.72 139.064 247.086 139.672C244.451 140.28 241.512 140.584 238.27 140.584ZM270.479 138.456C269.77 138.456 269.162 138.152 268.655 137.544C268.25 136.835 268.047 136.125 268.047 135.416C268.25 133.896 268.655 133.085 269.263 132.984C269.871 132.781 270.682 132.68 271.695 132.68C274.533 132.68 276.458 132.224 277.471 131.312C278.485 130.299 279.042 128.981 279.143 127.36C279.346 125.739 279.447 124.067 279.447 122.344V87.536C279.447 85.712 279.346 84.04 279.143 82.52C279.042 80.8987 278.485 79.632 277.471 78.72C276.458 77.7067 274.533 77.2 271.695 77.2C270.783 77.2 269.922 77.0987 269.111 76.896C268.402 76.592 268.047 75.68 268.047 74.16C268.047 72.64 268.858 71.728 270.479 71.424C275.141 70.7147 278.687 70.0053 281.119 69.296C283.653 68.5867 285.578 67.9787 286.895 67.472C288.213 66.9653 289.378 66.6613 290.391 66.56C291.202 66.4587 291.861 66.6107 292.367 67.016C292.975 67.4213 293.279 68.232 293.279 69.448V122.344C293.279 124.067 293.33 125.739 293.431 127.36C293.634 128.981 294.242 130.299 295.255 131.312C296.37 132.224 298.346 132.68 301.183 132.68C302.095 132.68 302.855 132.781 303.463 132.984C304.173 133.085 304.578 133.896 304.679 135.416C304.679 136.125 304.477 136.835 304.071 137.544C303.666 138.152 303.058 138.456 302.247 138.456C299.309 138.253 296.573 138.101 294.039 138C291.607 138 289.023 138 286.287 138C283.551 138 280.967 138 278.535 138C276.103 138.101 273.418 138.253 270.479 138.456ZM285.527 49.688C282.69 49.688 280.309 48.8267 278.383 47.104C276.458 45.28 275.495 43.0507 275.495 40.416C275.495 38.0853 276.661 36.008 278.991 34.184C281.322 32.36 283.957 31.448 286.895 31.448C289.429 31.448 291.506 32.36 293.127 34.184C294.749 35.9067 295.559 38.136 295.559 40.872C295.559 43.304 294.597 45.3813 292.671 47.104C290.746 48.8267 288.365 49.688 285.527 49.688ZM313.936 138.456C313.226 138.456 312.618 138.152 312.112 137.544C311.706 136.835 311.504 136.125 311.504 135.416C311.605 133.896 311.96 133.085 312.568 132.984C313.277 132.781 314.088 132.68 315 132.68C317.837 132.68 319.762 132.224 320.776 131.312C321.89 130.299 322.498 128.981 322.6 127.36C322.802 125.739 322.904 124.067 322.904 122.344V48.168C322.904 46.344 322.802 44.672 322.6 43.152C322.498 41.5307 321.941 40.264 320.928 39.352C319.914 38.3387 317.989 37.832 315.152 37.832C314.24 37.832 313.378 37.7307 312.568 37.528C311.858 37.224 311.504 36.312 311.504 34.792C311.504 33.272 312.314 32.36 313.936 32.056C318.597 31.3467 322.144 30.6373 324.576 29.928C327.109 29.2187 329.034 28.6107 330.352 28.104C331.669 27.5973 332.834 27.2933 333.848 27.192C334.658 27.0907 335.317 27.2427 335.824 27.648C336.432 28.0533 336.736 28.864 336.736 30.08V122.344C336.736 124.067 336.786 125.739 336.888 127.36C337.09 128.981 337.698 130.299 338.712 131.312C339.826 132.224 341.802 132.68 344.64 132.68C345.552 132.68 346.312 132.781 346.92 132.984C347.629 133.085 348.034 133.896 348.136 135.416C348.136 136.125 347.933 136.835 347.528 137.544C347.122 138.152 346.514 138.456 345.704 138.456C342.765 138.253 340.029 138.101 337.496 138C335.064 138 332.48 138 329.744 138C327.008 138 324.424 138 321.992 138C319.56 138.101 316.874 138.253 313.936 138.456ZM388.613 139.824C382.938 139.824 377.669 138.304 372.805 135.264C367.941 132.224 364.04 127.968 361.101 122.496C358.162 117.024 356.693 110.691 356.693 103.496C356.693 97.2133 358.162 91.336 361.101 85.864C364.141 80.2907 368.296 75.832 373.565 72.488C378.936 69.0427 385.016 67.32 391.805 67.32C395.048 67.32 398.24 67.7253 401.381 68.536C404.522 69.2453 407.208 70.2587 409.437 71.576H409.893V48.32C409.893 46.496 409.792 44.824 409.589 43.304C409.488 41.6827 408.93 40.416 407.917 39.504C406.904 38.4907 404.978 37.984 402.141 37.984C401.229 37.984 400.368 37.8827 399.557 37.68C398.848 37.376 398.493 36.464 398.493 34.944C398.493 33.424 399.304 32.512 400.925 32.208C405.586 31.4987 409.133 30.7893 411.565 30.08C414.098 29.3707 416.024 28.7627 417.341 28.256C418.658 27.7493 419.824 27.4453 420.837 27.344C421.648 27.2427 422.306 27.3947 422.813 27.8C423.421 28.2053 423.725 29.016 423.725 30.232V124.016C423.725 129.995 427.677 132.984 435.581 132.984C436.696 132.984 437.405 133.288 437.709 133.896C438.013 134.403 438.165 134.909 438.165 135.416C438.165 136.835 437.304 137.696 435.581 138L411.413 139.672C410.704 139.672 410.298 139.368 410.197 138.76C410.096 138.152 410.045 137.443 410.045 136.632V130.552H409.589C407.056 133.187 403.864 135.416 400.013 137.24C396.264 138.963 392.464 139.824 388.613 139.824ZM393.781 132.224C397.632 132.224 400.824 131.464 403.357 129.944C405.89 128.323 408.069 126.549 409.893 124.624V84.496C409.386 82.7733 408.424 81.0507 407.005 79.328C405.688 77.504 403.864 75.984 401.533 74.768C399.304 73.4507 396.568 72.792 393.325 72.792C387.448 72.792 382.482 75.5787 378.429 81.152C374.376 86.624 372.349 94.3253 372.349 104.256C372.349 109.019 373.109 113.579 374.629 117.936C376.25 122.192 378.632 125.637 381.773 128.272C384.914 130.907 388.917 132.224 393.781 132.224ZM464.169 139.824C457.987 139.824 453.022 138.051 449.273 134.504C445.625 130.957 443.801 126.701 443.801 121.736C443.801 116.568 445.118 112.515 447.753 109.576C450.489 106.637 454.035 104.459 458.393 103.04C462.851 101.621 467.665 100.659 472.833 100.152C478.102 99.6453 483.219 99.24 488.185 98.936V86.928C488.185 82.1653 486.969 78.4667 484.537 75.832C482.206 73.096 478.203 71.728 472.529 71.728C469.691 71.728 467.006 72.64 464.473 74.464C462.041 76.288 460.825 78.9227 460.825 82.368C460.825 83.9893 461.23 85.3573 462.041 86.472C462.851 87.5867 463.662 88.448 464.473 89.056C465.283 89.664 465.689 90.0693 465.689 90.272C465.689 90.6773 465.081 91.4373 463.865 92.552C462.75 93.5653 461.179 94.072 459.153 94.072C456.011 94.072 453.579 92.9067 451.857 90.576C450.134 88.2453 449.273 85.6613 449.273 82.824C449.273 78.9733 450.438 75.9333 452.769 73.704C455.201 71.4747 458.291 69.8533 462.041 68.84C465.79 67.8267 469.59 67.32 473.441 67.32C478.001 67.32 482.409 67.8773 486.665 68.992C491.022 70.1067 494.569 72.2347 497.305 75.376C500.142 78.5173 501.561 83.2293 501.561 89.512V124.928C501.662 125.941 501.915 127.157 502.321 128.576C502.726 129.995 503.486 131.261 504.601 132.376C505.817 133.389 507.438 133.896 509.465 133.896C510.174 133.896 510.731 134.048 511.137 134.352C511.542 134.555 511.745 135.213 511.745 136.328C511.745 137.24 511.238 137.949 510.225 138.456C509.211 138.963 508.046 139.317 506.729 139.52C505.411 139.723 504.297 139.824 503.385 139.824C499.635 139.824 496.291 138.76 493.353 136.632C490.414 134.403 488.691 131.363 488.185 127.512C485.955 131.565 482.611 134.656 478.153 136.784C473.795 138.811 469.134 139.824 464.169 139.824ZM469.033 131.616C472.478 131.616 475.619 130.755 478.457 129.032C481.395 127.309 483.726 124.979 485.449 122.04C487.273 119 488.185 115.656 488.185 112.008V103.344C477.747 104.053 470.299 105.725 465.841 108.36C461.382 110.995 459.153 115.301 459.153 121.28C459.153 128.171 462.446 131.616 469.033 131.616Z" fill="white"/>
</svg>
