<?xml version="1.0" standalone="no"?>
<!DOCTYPE svg PUBLIC "-//W3C//DTD SVG 20010904//EN"
 "http://www.w3.org/TR/2001/REC-SVG-20010904/DTD/svg10.dtd">
<svg version="1.0" xmlns="http://www.w3.org/2000/svg"
 width="262.000000pt" height="262.000000pt" viewBox="0 0 262.000000 262.000000"
 preserveAspectRatio="xMidYMid meet">
<metadata>
Created by potrace 1.14, written by Peter Selinger 2001-2017
</metadata>
<g transform="translate(0.000000,262.000000) scale(0.100000,-0.100000)"
fill="#000000" stroke="none">
<path d="M1825 2196 c-101 -11 -115 -15 -166 -49 -115 -76 -201 -186 -282
-359 -72 -154 -147 -260 -282 -397 l-122 -124 -114 21 c-232 43 -452 36 -564
-18 -64 -31 -123 -92 -131 -135 -9 -51 18 -154 61 -231 108 -192 413 -404 778
-538 423 -157 768 -193 1036 -110 72 22 91 33 136 78 91 91 111 222 52 350
-43 93 -175 206 -330 282 -72 36 -78 41 -73 64 16 74 17 320 2 427 -14 101
-14 119 -1 175 8 35 15 108 15 163 1 157 36 263 94 284 11 5 45 2 76 -5 30 -7
63 -13 72 -14 43 -1 65 72 31 102 -15 13 -152 50 -172 47 -3 -1 -56 -7 -116
-13z m-1139 -1084 c6 -4 29 -32 52 -62 50 -67 94 -105 241 -203 81 -55 135
-84 190 -101 119 -37 256 -58 381 -60 100 0 120 2 156 21 22 12 46 29 53 37
40 48 121 -19 91 -75 -14 -25 -95 -62 -172 -78 -95 -20 -332 -19 -407 2 -89
24 -232 90 -316 145 -70 46 -267 234 -319 304 -23 30 -25 40 -16 57 11 21 45
28 66 13z"/>
</g>
</svg>
